<svg width="55" height="54" viewBox="0 0 55 54" fill="none" xmlns="http://www.w3.org/2000/svg">
<path d="M51.7368 31.4357L50.1055 36.3018L48.3325 35.7365C48.3323 35.7364 48.332 35.7363 48.3318 35.7363C47.4472 35.4496 46.4818 35.8335 46.0057 36.6372L46.0056 36.6372L46.0025 36.6428C45.15 38.1706 44.0861 39.5924 42.8526 40.8668C42.1975 41.5426 42.123 42.5787 42.6876 43.313C42.688 43.3136 42.6885 43.3142 42.6889 43.3147L43.7728 44.7697L40.0352 47.4097L38.9328 45.9327L38.9314 45.9308C38.3713 45.1945 37.3733 44.9513 36.5101 45.3383L36.5072 45.3396C34.8766 46.0961 33.1615 46.6387 31.4127 46.9594L31.4124 46.9594C30.4908 47.1294 29.7973 47.9077 29.7973 48.8359V50.6407H25.1682V48.8359C25.1682 47.9111 24.4865 47.1209 23.5515 46.9592C21.7946 46.6385 20.0801 46.0959 18.4417 45.3315L18.4417 45.3315L18.4371 45.3295C17.5841 44.9521 16.5854 45.1853 16.0246 45.9321L16.024 45.9328L14.9301 47.4012L11.1925 44.7613L12.2692 43.3132C12.842 42.5712 12.7688 41.5345 12.1037 40.8578C10.8705 39.5837 9.80683 38.1621 8.94595 36.6179L8.94603 36.6179L8.9425 36.6119C8.47409 35.8237 7.50787 35.4416 6.62448 35.7282L6.12535 35.8901L6.14598 35.9035L4.87731 36.3028L3.24571 31.4439L3.16743 31.2107L2.93305 31.2852L1.30885 31.801L1.0665 31.8779L1.14757 32.119L2.85676 37.2006C3.01519 37.6906 3.36978 38.0912 3.82923 38.3196C4.28797 38.5475 4.81643 38.5952 5.32374 38.4339C5.32389 38.4338 5.32404 38.4338 5.32419 38.4338L7.13967 37.8624C8.03713 39.4257 9.12091 40.8864 10.384 42.2173L9.27172 43.7104C8.95798 44.1214 8.82908 44.6303 8.90796 45.1305C8.98713 45.641 9.27364 46.0897 9.69223 46.3928L9.69465 46.3945L13.8404 49.3228C14.2683 49.6256 14.7868 49.7504 15.3057 49.6652C15.8242 49.5885 16.2751 49.3116 16.5786 48.9024C16.5789 48.9021 16.5791 48.9018 16.5793 48.9015L17.7046 47.4087C19.3849 48.1764 21.1531 48.7324 22.9671 49.0771V50.924C22.9671 51.9836 23.8548 52.8379 24.9268 52.8379H30.0558C31.1278 52.8379 32.0155 51.9836 32.0155 50.924V49.077C33.8301 48.7318 35.5982 48.1684 37.285 47.4007L38.3931 48.891C38.3935 48.8914 38.3938 48.8918 38.3941 48.8923C38.7001 49.3142 39.1528 49.58 39.6662 49.6649L39.6669 49.665C40.1929 49.7503 40.7128 49.6271 41.1347 49.322C41.1351 49.3218 41.1355 49.3215 41.1358 49.3212L45.2794 46.3945L45.2796 46.3944C45.7108 46.0892 45.9873 45.6385 46.0661 45.1305C46.145 44.622 46.016 44.1225 45.7125 43.7126C45.7124 43.7124 45.7123 43.7123 45.7122 43.7121L44.6066 42.2103C45.8623 40.8943 46.9531 39.4336 47.8441 37.8552L49.6582 38.4337L49.6612 38.4346C50.1565 38.5858 50.6833 38.5483 51.1515 38.3205L51.1515 38.3205L51.1551 38.3187C51.6212 38.0825 51.9673 37.691 52.1258 37.2006C52.126 37.2001 52.1262 37.1995 52.1263 37.199L53.8351 32.1105L53.916 31.8696L53.6737 31.7927L52.0495 31.2769L51.815 31.2024L51.7368 31.4357Z" fill="white" stroke="white" stroke-width="0.5"/>
<path d="M44.8603 32.1074L44.9379 31.866L44.6954 31.7918L43.0626 31.2927L42.827 31.2206L42.7516 31.4551C40.6575 37.9619 34.5331 42.3464 27.4913 42.3464C20.4494 42.3464 14.3252 37.9701 12.2311 31.4552L12.1557 31.2206L11.92 31.2927L10.2873 31.7918L10.0447 31.866L10.1223 32.1074C12.5076 39.5272 19.488 44.5102 27.4828 44.5102H27.4999C35.4946 44.5102 42.475 39.5272 44.8603 32.1074Z" fill="white" stroke="white" stroke-width="0.5"/>
<path d="M54.25 28.4536V28.2036H54H1H0.75V28.4536V30.1188V30.3688H1H54H54.25V30.1188V28.4536Z" fill="white" stroke="white" stroke-width="0.5"/>
<path d="M50.5807 27.0398H50.8307V26.7898V15.1428C50.8307 14.5408 50.3277 14.0609 49.7259 14.0609H43.1372V1.83193C43.1372 1.22994 42.6341 0.75 42.0323 0.75H31.7743C31.1725 0.75 30.6694 1.22994 30.6694 1.83193V9.90121H24.3307V6.8235C24.3307 6.4982 24.1853 6.19375 23.9299 5.98831C23.9298 5.98823 23.9297 5.98815 23.9296 5.98807L18.8019 1.82952C18.8019 1.82946 18.8018 1.82939 18.8017 1.82933C18.3935 1.49669 17.8002 1.49669 17.392 1.82932C17.3919 1.82939 17.3919 1.82945 17.3918 1.82952L12.2641 5.98807C12.2639 5.98819 12.2638 5.9883 12.2637 5.98841C12.0084 6.19386 11.863 6.49825 11.863 6.8235V13.2289H5.27427C4.67249 13.2289 4.16943 13.7089 4.16943 14.3109V26.7898V27.0398H4.41943H6.12911H6.37911V26.7898V15.3928H11.863V26.7898V27.0398H12.113H13.8227H14.0727V26.7898V7.33358L18.0969 4.06735L22.121 7.33358V26.7898V27.0398H22.371H24.0807H24.3307V26.7898V12.0651H30.6694V26.7898V27.0398H30.9194H32.6291H32.8791V26.7898V2.91386H40.9275V26.7898V27.0398H41.1775H42.8872H43.1372V26.7898V16.2247H48.621V26.7898V27.0398H48.871H50.5807Z" fill="white" stroke="white" stroke-width="0.5"/>
<path d="M36.2983 5.15967V4.90967H36.0483H34.3386H34.0886V5.15967V6.82481V7.07481H34.3386H36.0483H36.2983V6.82481V5.15967Z" fill="white" stroke="white" stroke-width="0.5"/>
<path d="M39.7177 5.15967V4.90967H39.4677H37.7581H37.5081V5.15967V6.82481V7.07481H37.7581H39.4677H39.7177V6.82481V5.15967Z" fill="white" stroke="white" stroke-width="0.5"/>
<path d="M36.2983 9.31934V9.06934H36.0483H34.3386H34.0886V9.31934V10.9845V11.2345H34.3386H36.0483H36.2983V10.9845V9.31934Z" fill="white" stroke="white" stroke-width="0.5"/>
<path d="M39.7177 9.31934V9.06934H39.4677H37.7581H37.5081V9.31934V10.9845V11.2345H37.7581H39.4677H39.7177V10.9845V9.31934Z" fill="white" stroke="white" stroke-width="0.5"/>
<path d="M36.2983 13.4789V13.2289H36.0483H34.3386H34.0886V13.4789V15.144V15.394H34.3386H36.0483H36.2983V15.144V13.4789Z" fill="white" stroke="white" stroke-width="0.5"/>
<path d="M39.7177 13.4789V13.2289H39.4677H37.7581H37.5081V13.4789V15.144V15.394H37.7581H39.4677H39.7177V15.144V13.4789Z" fill="white" stroke="white" stroke-width="0.5"/>
<path d="M20.9113 8.4873V8.2373H20.6613H15.5322H15.2822V8.4873V10.1524V10.4024H15.5322H20.6613H20.9113V10.1524V8.4873Z" fill="white" stroke="white" stroke-width="0.5"/>
<path d="M20.9113 12.647V12.397H20.6613H15.5322H15.2822V12.647V14.3121V14.5621H15.5322H20.6613H20.9113V14.3121V12.647Z" fill="white" stroke="white" stroke-width="0.5"/>
</svg>
