<svg width="53" height="65" viewBox="0 0 53 65" fill="none" xmlns="http://www.w3.org/2000/svg">
<g clip-path="url(#clip0_27_24)">
<path d="M46.0438 19.63L28.3771 10.01C27.2067 9.36002 25.7933 9.36002 24.6229 10.01L21.5312 11.7V10.855C21.5312 8.77502 19.7867 7.06335 17.6667 7.06335H13.25C11.13 7.06335 9.38542 8.77502 9.38542 10.855V18.33L6.95625 19.6517C5.71958 20.3234 4.96875 21.58 4.96875 22.9667V43.355C4.96875 45.435 6.71333 47.1467 8.83333 47.1467H17.6667C19.7867 47.1467 21.5312 45.435 21.5312 43.355V34.6884C21.5312 34.385 21.7742 34.1467 22.0833 34.1467H30.9167C31.2258 34.1467 31.4688 34.385 31.4688 34.6884V43.355C31.4688 45.435 33.2133 47.1467 35.3333 47.1467H44.1667C46.2867 47.1467 48.0312 45.435 48.0312 43.355V22.945C48.0312 21.5584 47.2804 20.3017 46.0438 19.63ZM44.7188 43.3334C44.7188 43.6367 44.4758 43.875 44.1667 43.875H35.3333C35.0242 43.875 34.7812 43.6367 34.7812 43.3334V34.6667C34.7812 32.5867 33.0367 30.875 30.9167 30.875H22.0833C19.9633 30.875 18.2188 32.5867 18.2188 34.6667V43.3334C18.2188 43.6367 17.9758 43.875 17.6667 43.875H8.83333C8.52417 43.875 8.28125 43.6367 8.28125 43.3334V22.945C8.28125 22.75 8.39167 22.5767 8.56833 22.4684L11.8587 20.67C12.3887 20.3884 12.72 19.8467 12.72 19.24V10.8117C12.72 10.5084 12.9629 10.27 13.2721 10.27H17.6888C17.9979 10.27 18.2408 10.5084 18.2408 10.8117V14.43C18.2408 15.015 18.55 15.535 19.0579 15.8384C19.5658 16.12 20.1842 16.1417 20.7142 15.8384L26.2792 12.805C26.4337 12.7184 26.6325 12.7184 26.8092 12.805L44.4758 22.425C44.6525 22.5117 44.7629 22.7067 44.7629 22.9017V43.29L44.7188 43.3334Z" fill="white"/>
</g>
<defs>
<clipPath id="clip0_27_24">
<rect width="53" height="65" fill="white"/>
</clipPath>
</defs>
</svg>
