<svg width="24" height="24" viewBox="0 0 24 24" fill="none" xmlns="http://www.w3.org/2000/svg">
<circle cx="12" cy="11.9999" r="12" fill="#FF7069"/>
<path d="M9.00873 16.7857C9.06149 16.7762 9.11293 16.7625 9.164 16.7449L9.16507 16.7445C9.16724 16.7437 9.17077 16.7426 9.17508 16.7411C9.18606 16.7374 9.20208 16.732 9.21354 16.7274C9.34659 16.6753 9.47194 16.5973 9.58089 16.4943L9.58126 16.494L18.7722 7.72113C19.2093 7.30393 19.2092 6.62971 18.7723 6.21167L18.7722 6.21159C18.555 6.00427 18.2718 5.90042 17.9894 5.90012V5.9C17.7069 5.9 17.423 6.00275 17.2052 6.21164L8.7973 14.2371L6.97461 12.4973H6.9756L6.79505 12.325C6.58605 12.1255 6.30359 12.0145 6.01104 12.0145C5.71746 12.0145 5.43601 12.1255 5.22703 12.325C4.79099 12.7412 4.79099 13.4174 5.22703 13.8336L8.01423 16.494C8.09628 16.5723 8.1869 16.6347 8.28248 16.6835C8.3133 16.6992 8.34824 16.7149 8.38141 16.7275M9.00873 16.7857C8.95623 16.796 8.90359 16.8023 8.84987 16.8044L8.84887 16.8044C8.81416 16.8054 8.77938 16.8054 8.74554 16.8044L8.74257 16.8043L8.74257 16.8043C8.69104 16.8012 8.63841 16.7951 8.58672 16.7858L8.5853 16.7856C8.51696 16.7723 8.4485 16.7538 8.38141 16.7275M9.00873 16.7857C9.00904 16.7856 9.00935 16.7855 9.00967 16.7855L8.99016 16.6874L9.00778 16.7858C9.00809 16.7858 9.00841 16.7857 9.00873 16.7857ZM8.38141 16.7275C8.38126 16.7275 8.38111 16.7274 8.38096 16.7274L8.41739 16.6342L8.38173 16.7277C8.38162 16.7276 8.38151 16.7276 8.38141 16.7275Z" fill="white" stroke="white" stroke-width="0.2"/>
</svg>
